<svg xmlns="http://www.w3.org/2000/svg" width="40.844" height="38.845" viewBox="0 0 40.844 38.845">
  <g id="Group_147" data-name="Group 147" transform="translate(-13.156 -694.972)">
    <path id="Path_139" data-name="Path 139" d="M23.365,719.763l-2.409,14.053,5.423-2.853V707.888L13.157,709.81ZM33.578,702.05h.006l4.706,2.473-4.714-9.55-4.72,9.561,4.72-2.483ZM28.369,725.1v4.822l5.208-2.737,5.21,2.737v-4.83l-5.205-2.731Zm0-18.992v5.018l5.208-2.737v0h0l0,0,5.2,2.729V706.1l-5.205-2.731ZM54,709.81l-13.223-1.922v23.076l5.423,2.853-2.412-14.053Zm-25.631,2.627v5.016l5.208-2.741h.008l5.2,2.734v-5.017l-5.205-2.734Zm0,6.328v5.017l5.208-2.737v0l0,0v0l0,0,5.2,2.729v-5.017l-5.205-2.729Z" transform="translate(0)" fill="#f99500"/>
  </g>
</svg>
