<svg xmlns="http://www.w3.org/2000/svg" xmlns:xlink="http://www.w3.org/1999/xlink" width="70" height="70" viewBox="0 0 70 70">
  <defs>
    <clipPath id="clip-path">
      <rect id="Rectangle_65" data-name="Rectangle 65" width="70" height="70" rx="5" transform="translate(1176 1189)" fill="#f79000"/>
    </clipPath>
  </defs>
  <g id="Mask_Group_2" data-name="Mask Group 2" transform="translate(-1176 -1189)" clip-path="url(#clip-path)">
    <path id="mall" d="M76.418,47.8H65.67V41.646h1.4a1.8,1.8,0,0,0,1.8-1.8V32.6a1.8,1.8,0,0,0-1.8-1.8H53.894V29.121h4.928a1.8,1.8,0,0,0,1.8-1.8V15.773a1.8,1.8,0,0,0-1.8-1.8H27.614a1.8,1.8,0,0,0-1.8,1.8V27.322a1.8,1.8,0,0,0,1.8,1.8h4.225V30.8H19.279a1.8,1.8,0,0,0-1.8,1.8v7.244a1.8,1.8,0,0,0,1.8,1.8h1.487V47.8H10.018a1.8,1.8,0,0,0-1.8,1.8V70.614a1.8,1.8,0,0,0,1.8,1.8h66.4a1.8,1.8,0,0,0,1.8-1.8V49.6A1.8,1.8,0,0,0,76.418,47.8Zm-1.8,3.6v4.3H65.67V51.4ZM29.414,17.573H57.022v7.949H29.414Zm6.025,11.548H50.294V30.8H35.439ZM21.078,34.4H65.271v3.644H21.078Zm-.313,17v4.3H11.818V51.4Zm-8.948,7.9h8.948v9.512H11.818Zm12.548-9.7V41.646H62.072V68.814H53.894V57a1.8,1.8,0,0,0,1.479-1.767,12.154,12.154,0,1,0-24.308,0A1.8,1.8,0,0,0,32.541,57V68.814H24.365Zm10.489,3.83a8.556,8.556,0,0,1,16.729,0Zm1.286,3.6h5.277V68.814H36.14Zm8.877,11.785V57.029h5.277V68.814Zm20.653,0V59.3h8.948v9.512Z" transform="translate(1167.782 1180.806)" fill="#f79000"/>
  </g>
</svg>
