<svg xmlns="http://www.w3.org/2000/svg" width="64" height="57.456" viewBox="0 0 64 57.456">
  <g id="exchange" transform="translate(0 0)">
    <path id="Path_175" data-name="Path 175" d="M60,237.824a6,6,0,0,1-6,6H6.831l7.9-7.9L11.9,233.1.589,244.41a2,2,0,0,0,0,2.828L11.9,258.552l2.828-2.828-7.9-7.9H54a10.012,10.012,0,0,0,10-10v-8H60Zm0,0" transform="translate(-0.003 -201.096)" fill="#f89c1d"/>
    <path id="Path_176" data-name="Path 176" d="M4,20.728a6,6,0,0,1,6-6H57.172l-7.9,7.9L52.1,25.456,63.414,14.142a2,2,0,0,0,0-2.828L52.1,0,49.272,2.828l7.9,7.9H10a10.012,10.012,0,0,0-10,10v8H4Zm0,0" fill="#f89c1d"/>
  </g>
</svg>
