<svg xmlns="http://www.w3.org/2000/svg" width="65.15" height="67.941" viewBox="0 0 65.15 67.941">
  <g id="garage" transform="translate(-24.994 -15.191)">
    <path id="Path_177" data-name="Path 177" d="M89.632,34.427,58.138,15.354a1.114,1.114,0,0,0-1.16,0L25.5,34.427a1.1,1.1,0,0,0-.508.965V81.978a1.1,1.1,0,0,0,1.063,1.155h6.716a1.131,1.131,0,0,0,1.1-1.155V49.995H81.26V81.978a1.131,1.131,0,0,0,1.1,1.155H89.08a1.1,1.1,0,0,0,1.063-1.155V35.392A1.1,1.1,0,0,0,89.632,34.427ZM33.879,47.738V43.226H81.26v4.512ZM87.887,80.876H83.516V42.108a1.157,1.157,0,0,0-1.152-1.138H32.775a1.157,1.157,0,0,0-1.152,1.138V80.876H27.252V36.028L57.57,17.638l30.318,18.39Z" transform="translate(0 0)" fill="#f89c1d"/>
    <path id="Path_178" data-name="Path 178" d="M152.405,287.561l-2.981-8.068A3.821,3.821,0,0,0,145.875,277H124.42a3.821,3.821,0,0,0-3.549,2.492l-2.94,7.945-1.158,1.093A5.106,5.106,0,0,0,115,292.417v14.451a1.134,1.134,0,0,0,1.107,1.155h7.528a1.123,1.123,0,0,0,1.095-1.155v-4.063h20.306v4.063a1.123,1.123,0,0,0,1.095,1.155h7.528a1.134,1.134,0,0,0,1.107-1.155V292.113a5.124,5.124,0,0,0-1.565-3.692ZM122.986,280.3a1.579,1.579,0,0,1,1.434-1.043h21.454a1.579,1.579,0,0,1,1.434,1.043l2.47,6.712H120.517Zm-.514,25.467h-5.217v-2.961h5.217Zm24.818,0v-2.961h5.217v2.961Zm5.217-5.217H117.255v-8.132a2.843,2.843,0,0,1,1-2.179c.013-.011.02,0,.033-.01l1.053-.96h31.529l.717.742c.016.017.022.022.039.038a2.832,2.832,0,0,1,.885,2.065Z" transform="translate(-77.312 -224.89)" fill="#f89c1d"/>
    <path id="Path_179" data-name="Path 179" d="M146.337,383h-.651a3.314,3.314,0,0,0,0,6.628h.651a3.314,3.314,0,1,0,0-6.628Zm0,4.371h-.651a1.058,1.058,0,0,1,0-2.115h.651a1.058,1.058,0,1,1,0,2.115Z" transform="translate(-100.826 -315.943)" fill="#f89c1d"/>
    <path id="Path_180" data-name="Path 180" d="M321.977,383h-.651a3.314,3.314,0,1,0,0,6.628h.651a3.314,3.314,0,1,0,0-6.628Zm0,4.371h-.651a1.058,1.058,0,1,1,0-2.115h.651a1.058,1.058,0,1,1,0,2.115Z" transform="translate(-251.699 -315.943)" fill="#f89c1d"/>
    <path id="Path_181" data-name="Path 181" d="M220.678,385.128A1.128,1.128,0,0,0,219.55,384H208.128A1.128,1.128,0,0,0,207,385.128v4.23a1.128,1.128,0,0,0,1.128,1.128H219.55a1.128,1.128,0,0,0,1.128-1.128Zm-2.115,3.1h-9.307v-1.974h9.307Z" transform="translate(-156.34 -316.802)" fill="#f89c1d"/>
  </g>
</svg>
