<svg xmlns="http://www.w3.org/2000/svg" width="18.252" height="25.604" viewBox="0 0 18.252 25.604">
  <g id="Group_103" data-name="Group 103" transform="translate(-44.396 -21.902)">
    <path id="Path_101" data-name="Path 101" d="M53.535,46.7a71.885,71.885,0,0,1-4.521-5.982,31.455,31.455,0,0,1-3.356-6.2,10.012,10.012,0,0,1-.761-3.744,8.631,8.631,0,0,1,17.09-1.429,8.474,8.474,0,0,1-.4,4.645,30.039,30.039,0,0,1-3.48,6.634,61.992,61.992,0,0,1-4.475,5.95A1.238,1.238,0,0,1,53.535,46.7ZM53.5,44.8c.124-.14.186-.2.249-.28,1.274-1.756,2.579-3.48,3.791-5.267A24.881,24.881,0,0,0,60.4,33.774a7.626,7.626,0,0,0,.466-4.039,7.426,7.426,0,0,0-14.744.948,8.912,8.912,0,0,0,.761,3.589A33.9,33.9,0,0,0,50.8,41.153C51.671,42.365,52.572,43.562,53.5,44.8Z" fill="#f79000" stroke="#f79308" stroke-width="1"/>
    <path id="Path_102" data-name="Path 102" d="M82.678,56.8a3.276,3.276,0,0,1,3.278,3.263A3.278,3.278,0,1,1,82.678,56.8Zm-2.066,3.247a2.082,2.082,0,0,0,2.066,2.1,2.107,2.107,0,0,0,2.082-2.051,2.074,2.074,0,0,0-4.148-.047Z" transform="translate(-29.143 -29.039)" fill="#f79000" stroke="#f79308" stroke-width="1"/>
  </g>
</svg>
