<svg xmlns="http://www.w3.org/2000/svg" xmlns:xlink="http://www.w3.org/1999/xlink" width="70" height="70" viewBox="0 0 70 70">
  <defs>
    <clipPath id="clip-path">
      <rect id="Rectangle_69" data-name="Rectangle 69" width="70" height="70" rx="5" transform="translate(777 1312)" fill="#f79000"/>
    </clipPath>
  </defs>
  <g id="Mask_Group_4" data-name="Mask Group 4" transform="translate(-777 -1312)" clip-path="url(#clip-path)">
    <g id="wallet" transform="translate(777 1312)">
      <path id="Path_162" data-name="Path 162" d="M69.649,32.609H66.29V17.159a6.725,6.725,0,0,0-6.717-6.717H55.024L50.37,2.073A4.03,4.03,0,0,0,44.888.508L27.024,10.442H7.068A6.725,6.725,0,0,0,.351,17.159V63.283A6.725,6.725,0,0,0,7.068,70h52.5a6.725,6.725,0,0,0,6.717-6.717V49.737h3.359V32.609ZM59.573,13.129a4.022,4.022,0,0,1,3.986,3.583H58.511l-1.991-3.583ZM46.2,2.856a1.369,1.369,0,0,1,1.826.521l7.416,13.333H21.279ZM63.6,63.283a4.035,4.035,0,0,1-4.03,4.03H7.068a4.035,4.035,0,0,1-4.03-4.03V17.159a4.035,4.035,0,0,1,4.03-4.03H22.193L15.75,16.712H7.908a1.343,1.343,0,0,0,0,2.687H63.6V32.61H53.779A8.286,8.286,0,0,0,45.5,40.886v.578a8.286,8.286,0,0,0,8.275,8.275H63.6V63.283Zm3.359-16.232H53.779a5.6,5.6,0,0,1-5.589-5.589v-.578A5.6,5.6,0,0,1,53.779,35.3H66.962Zm-9.068-5.767a2.966,2.966,0,1,1-2.966-2.966A2.965,2.965,0,0,1,57.894,41.283Z" fill="#f79000"/>
    </g>
  </g>
</svg>
