<svg xmlns="http://www.w3.org/2000/svg" xmlns:xlink="http://www.w3.org/1999/xlink" width="70" height="70" viewBox="0 0 70 70">
  <defs>
    <clipPath id="clip-path">
      <rect id="Rectangle_107" data-name="Rectangle 107" width="70" height="70" rx="5" transform="translate(376 1442)" fill="#f79000"/>
    </clipPath>
  </defs>
  <g id="Mask_Group_6" data-name="Mask Group 6" transform="translate(-376 -1442)" clip-path="url(#clip-path)">
    <g id="parking" transform="translate(376.139 1442.139)">
      <g id="Group_140" data-name="Group 140">
        <g id="Group_139" data-name="Group 139">
          <path id="Path_167" data-name="Path 167" d="M51.194,57.028V44.194a3.437,3.437,0,0,0-3.5-3.5h-.583a1.159,1.159,0,0,1-1.167-.817L41.861,25.644v-.117a5.9,5.9,0,0,0-5.367-3.5H14.561a5.9,5.9,0,0,0-5.367,3.5v.117L5.111,39.878a1.4,1.4,0,0,1-1.167.817H3.361a3.437,3.437,0,0,0-3.5,3.5V57.028a3.437,3.437,0,0,0,3.5,3.5v5.833a3.437,3.437,0,0,0,3.5,3.5H9.194a3.437,3.437,0,0,0,3.5-3.5V60.528H38.361v5.833a3.437,3.437,0,0,0,3.5,3.5h2.333a3.437,3.437,0,0,0,3.5-3.5V60.528A3.437,3.437,0,0,0,51.194,57.028ZM10.361,66.361a1.1,1.1,0,0,1-1.167,1.167H6.861a1.1,1.1,0,0,1-1.167-1.167V60.528h4.667v5.833Zm35,0a1.1,1.1,0,0,1-1.167,1.167H41.861a1.1,1.1,0,0,1-1.167-1.167V60.528h4.667v5.833Zm3.5-9.333a1.1,1.1,0,0,1-1.167,1.167H3.361a1.1,1.1,0,0,1-1.167-1.167V44.194a1.1,1.1,0,0,1,1.167-1.167h.583a3.607,3.607,0,0,0,3.383-2.567l4.083-14.117a3.513,3.513,0,0,1,3.15-1.983H36.494a3.438,3.438,0,0,1,3.15,1.983l4.083,14.117a3.607,3.607,0,0,0,3.383,2.567h.583a1.1,1.1,0,0,1,1.167,1.167V57.028Z" fill="#f79000"/>
          <path id="Path_168" data-name="Path 168" d="M10.361,45.361a4.667,4.667,0,1,0,4.667,4.667A4.68,4.68,0,0,0,10.361,45.361Zm0,7a2.333,2.333,0,1,1,2.333-2.333A2.34,2.34,0,0,1,10.361,52.361Z" fill="#f79000"/>
          <path id="Path_169" data-name="Path 169" d="M40.694,45.361a4.667,4.667,0,1,0,4.667,4.667A4.68,4.68,0,0,0,40.694,45.361Zm0,7a2.333,2.333,0,1,1,2.333-2.333A2.34,2.34,0,0,1,40.694,52.361Z" fill="#f79000"/>
          <path id="Path_170" data-name="Path 170" d="M27.861,51.194H23.194a1.167,1.167,0,1,0,0,2.333h4.667a1.167,1.167,0,1,0,0-2.333Z" fill="#f79000"/>
          <path id="Path_171" data-name="Path 171" d="M30.194,46.528H20.861a1.167,1.167,0,0,0,0,2.333h9.333a1.167,1.167,0,1,0,0-2.333Z" fill="#f79000"/>
          <path id="Path_172" data-name="Path 172" d="M14.328,40.694H36.844a2.436,2.436,0,0,0,1.867-.933,2.262,2.262,0,0,0,.35-2.1l-2.8-9.333a2.275,2.275,0,0,0-2.217-1.633H17.128a2.241,2.241,0,0,0-2.217,1.633l-2.8,9.333a2.262,2.262,0,0,0,.35,2.1A2.436,2.436,0,0,0,14.328,40.694Zm2.8-11.667H34.044l2.8,9.333H14.328Z" fill="#f79000"/>
          <path id="Path_173" data-name="Path 173" d="M68.694-.139H48.861a1.1,1.1,0,0,0-1.167,1.167V20.861a1.1,1.1,0,0,0,1.167,1.167h8.167V58.194H54.694a1.1,1.1,0,0,0-1.167,1.167v3.5H51.194a1.1,1.1,0,0,0-1.167,1.167v4.667a1.1,1.1,0,0,0,1.167,1.167h14a1.1,1.1,0,0,0,1.167-1.167V64.027a1.1,1.1,0,0,0-1.167-1.167H62.861v-3.5a1.1,1.1,0,0,0-1.167-1.167H59.361V22.028h9.333a1.1,1.1,0,0,0,1.167-1.167V1.028A1.1,1.1,0,0,0,68.694-.139ZM64.028,67.528H52.361V65.194H64.028v2.333Zm-3.5-4.667H55.861V60.528h4.667Zm7-43.167h-17.5V2.194h17.5Z" fill="#f79000"/>
          <path id="Path_174" data-name="Path 174" d="M57.028,17.361a1.1,1.1,0,0,0,1.167-1.167V13.861h1.167a4.667,4.667,0,1,0,0-9.333H57.028a1.1,1.1,0,0,0-1.167,1.167v10.5A1.1,1.1,0,0,0,57.028,17.361Zm4.667-8.167a2.34,2.34,0,0,1-2.333,2.333H58.194V6.861h1.167A2.34,2.34,0,0,1,61.694,9.194Z" fill="#f79000"/>
        </g>
      </g>
    </g>
  </g>
</svg>
