<svg id="ruble" xmlns="http://www.w3.org/2000/svg" width="66.941" height="66.941" viewBox="0 0 66.941 66.941">
  <g id="Group_142" data-name="Group 142">
    <g id="Group_141" data-name="Group 141">
      <path id="Path_182" data-name="Path 182" d="M33.471,0A33.471,33.471,0,1,0,66.941,33.471,33.51,33.51,0,0,0,33.471,0Zm0,62.757A29.287,29.287,0,1,1,62.757,33.471,29.322,29.322,0,0,1,33.471,62.757Z" fill="#f89c1d"/>
    </g>
  </g>
  <g id="Group_144" data-name="Group 144" transform="translate(20.919 16.735)">
    <g id="Group_143" data-name="Group 143">
      <path id="Path_183" data-name="Path 183" d="M180.919,128H170.46a2.093,2.093,0,0,0-2.092,2.092v18.827h-6.276a2.092,2.092,0,0,0,0,4.184h6.276v6.276a2.092,2.092,0,0,0,4.184,0V153.1h6.276a2.092,2.092,0,1,0,0-4.184h-6.276v-4.184h8.368a8.368,8.368,0,1,0,0-16.735Zm0,12.551h-8.368v-8.368h8.368a4.184,4.184,0,1,1,0,8.368Z" transform="translate(-160 -128)" fill="#f89c1d"/>
    </g>
  </g>
</svg>
