<svg xmlns="http://www.w3.org/2000/svg" xmlns:xlink="http://www.w3.org/1999/xlink" width="70" height="70" viewBox="0 0 70 70">
  <defs>
    <clipPath id="clip-path">
      <rect id="Rectangle_67" data-name="Rectangle 67" width="70" height="70" rx="5" transform="translate(777 1189)" fill="#f79001"/>
    </clipPath>
  </defs>
  <g id="Mask_Group_1" data-name="Mask Group 1" transform="translate(-777 -1189)" clip-path="url(#clip-path)">
    <g id="price-tag" transform="translate(777 1189)">
      <g id="Group_138" data-name="Group 138">
        <path id="Path_158" data-name="Path 158" d="M51.743,25.04,37.675,12.721a4.084,4.084,0,0,0-5.364,0L27.32,17.095a12.783,12.783,0,0,1-.445-3.342,11.711,11.711,0,0,1,2.5-7.414,7.293,7.293,0,0,1,5.622-2.9c4.474,0,8.117,4.618,8.117,10.311a1.726,1.726,0,0,0,1.721,1.721h0a1.726,1.726,0,0,0,1.721-1.721C46.552,6.167,41.36,0,34.993,0A10.661,10.661,0,0,0,26.7,4.159a15.138,15.138,0,0,0-3.27,9.594,16.008,16.008,0,0,0,1.076,5.808L18.257,25.04a7.251,7.251,0,0,0-2.467,5.435V61.367A8.642,8.642,0,0,0,24.423,70H45.577a8.642,8.642,0,0,0,8.633-8.633V30.475A7.251,7.251,0,0,0,51.743,25.04Zm-.975,36.327a5.19,5.19,0,0,1-5.192,5.192H24.409a5.19,5.19,0,0,1-5.192-5.192V30.475a3.808,3.808,0,0,1,1.291-2.854l5.665-4.962.516.688a10.661,10.661,0,0,0,8.289,4.159h0a1.721,1.721,0,0,0,0-3.442,7.272,7.272,0,0,1-5.622-2.9c-.2-.258-.4-.516-.588-.789L34.563,15.3a.627.627,0,0,1,.832,0L49.463,27.621a3.808,3.808,0,0,1,1.291,2.854V61.367Z" fill="#f79001"/>
        <path id="Path_159" data-name="Path 159" d="M36.886,43.526H33.1a2.424,2.424,0,1,1,0-4.847h6.669a1.721,1.721,0,1,0,0-3.442H36.714V33a1.721,1.721,0,0,0-3.442,0v2.237H33.1a5.866,5.866,0,1,0,0,11.731h3.786a2.424,2.424,0,1,1,0,4.847h-6.8a1.721,1.721,0,1,0,0,3.442h3.184v2.28a1.721,1.721,0,0,0,3.442,0v-2.28h.244a5.866,5.866,0,0,0-.072-11.731Z" fill="#f79001"/>
      </g>
    </g>
  </g>
</svg>
