<svg xmlns="http://www.w3.org/2000/svg" width="66.117" height="72.836" viewBox="0 0 66.117 72.836">
  <g id="Group_536" data-name="Group 536" transform="translate(-1001.666 -1987.164)">
    <g id="garage" transform="translate(945.094 1901.371)">
      <path id="Path_178" data-name="Path 178" d="M177.191,294.558l-4.957-13.415a6.352,6.352,0,0,0-5.9-4.144H130.663a6.354,6.354,0,0,0-5.9,4.144l-4.888,13.21-1.926,1.816A8.49,8.49,0,0,0,115,302.633v24.026a1.885,1.885,0,0,0,1.841,1.92h12.516a1.868,1.868,0,0,0,1.82-1.92V319.9h33.761v6.755a1.868,1.868,0,0,0,1.82,1.92h12.516a1.885,1.885,0,0,0,1.841-1.92V302.127a8.519,8.519,0,0,0-2.6-6.139Zm-48.912-12.072a2.626,2.626,0,0,1,2.384-1.735h35.671a2.626,2.626,0,0,1,2.384,1.735l4.106,11.16h-48.65Zm-.855,42.342H118.75V319.9h8.675Zm41.263,0V319.9h8.675v4.924Zm8.675-8.675H118.75V302.633a4.726,4.726,0,0,1,1.66-3.622c.022-.018.034,0,.055-.017l1.751-1.6h52.421l1.191,1.233c.026.028.036.036.064.062a4.709,4.709,0,0,1,1.471,3.434Z" transform="translate(-58.425 -169.95)" fill="#f89c1d"/>
      <path id="Path_179" data-name="Path 179" d="M148.964,383h-1.082a5.51,5.51,0,0,0,0,11.019h1.082a5.51,5.51,0,1,0,0-11.019Zm0,7.268h-1.082a1.758,1.758,0,0,1,0-3.517h1.082a1.758,1.758,0,1,1,0,3.517Z" transform="translate(-79.381 -251.099)" fill="#f89c1d"/>
      <path id="Path_180" data-name="Path 180" d="M324.6,383h-1.082a5.51,5.51,0,1,0,0,11.019H324.6a5.51,5.51,0,1,0,0-11.019Zm0,7.268h-1.082a1.758,1.758,0,0,1,0-3.517H324.6a1.758,1.758,0,1,1,0,3.517Z" transform="translate(-213.842 -251.099)" fill="#f89c1d"/>
      <path id="Path_181" data-name="Path 181" d="M229.742,385.876A1.876,1.876,0,0,0,227.866,384H208.876A1.876,1.876,0,0,0,207,385.876v7.034a1.876,1.876,0,0,0,1.876,1.876h18.991a1.876,1.876,0,0,0,1.876-1.876Zm-3.517,5.158H210.751v-3.282h15.474Z" transform="translate(-128.857 -251.864)" fill="#f89c1d"/>
    </g>
    <g id="garage_____" transform="translate(1325.803 1599.828) rotate(90)">
      <path id="Path_212" data-name="Path 212" d="M391.613,287.781h7.147a4.33,4.33,0,0,0,3.7-6.469l-3.636-6.164a4.255,4.255,0,0,0-7.265,0l-3.636,6.164A4.328,4.328,0,0,0,391.613,287.781Zm-1-4.88,3.636-6.164a1.1,1.1,0,0,1,1.875,0l3.636,6.164a1.17,1.17,0,0,1-1,1.75h-7.147A1.171,1.171,0,0,1,390.614,282.9Zm0,0" fill="#f79000"/>
      <path id="Path_213" data-name="Path 213" d="M398.824,377.649l3.636-6.164a4.329,4.329,0,0,0-3.7-6.469h-7.146a4.329,4.329,0,0,0-3.695,6.469s3.632,6.158,3.636,6.164A4.256,4.256,0,0,0,398.824,377.649Zm-3.632-1.062a1.078,1.078,0,0,1-.937-.527l-3.636-6.164a1.17,1.17,0,0,1,1-1.751h7.147a1.169,1.169,0,0,1,1,1.751l-3.636,6.164A1.074,1.074,0,0,1,395.192,376.586Zm0,0" transform="translate(-0.005 -72.736)" fill="#f79000"/>
    </g>
  </g>
</svg>
