<svg xmlns="http://www.w3.org/2000/svg" width="70" height="70" viewBox="0 0 70 70">
  <g id="tire" transform="translate(-16.066 1)">
    <g id="Group_137" data-name="Group 137" transform="translate(16.067 -1)">
      <g id="Group_136" data-name="Group 136">
        <path id="Path_156" data-name="Path 156" d="M86.067,33.767c0-.117,0-.232-.006-.349,0-.159,0-.318-.008-.477,0-.039,0-.078,0-.118-.239-9.55-3.368-18.162-8.263-24.306C73.435,3.027,67.685-.514,61.317-1h-.25c-.089.007-.178.018-.267.027C60.474-.989,60.146-1,59.817-1h-17.5c-6.5,0-12.449,3.168-17.034,8.4a1.308,1.308,0,0,0-.319.371c-5.455,6.426-8.9,15.816-8.9,26.233,0,19.25,11.75,35,26.25,35h17.5c.357,0,.711-.012,1.064-.031.1.011.207.023.311.031,12-.933,22-12.367,24.375-28.117.014-.122.027-.245.041-.368A46.327,46.327,0,0,0,86.067,34v-.233Zm-41.343,18.6a.97.97,0,0,0-.163-.376A45.959,45.959,0,0,1,41.067,34c0-17.224,8.713-31.353,19.817-32.632C73.513,2.139,83.567,16.523,83.567,34S73.512,65.863,60.881,66.632C54.093,65.859,48.268,60.386,44.724,52.368Zm-24.6-6.75a3.524,3.524,0,0,0,.82-.419l1.625-2.333,2.625,2.45a1.269,1.269,0,0,0,1.75,0l2.875-2.683,3,2.8a1.269,1.269,0,0,0,1.75,0l3-2.8,2.054,1.715A45.121,45.121,0,0,0,41.3,50.325l-2.233-1.042a1.241,1.241,0,0,0-1.625.35l-1.625,2.333-2.625-2.45a1.269,1.269,0,0,0-1.75,0L28.567,52.2l-2.875-2.683a1.269,1.269,0,0,0-1.75,0l-1.8,1.684A38.71,38.71,0,0,1,20.122,45.619Zm-1.55-11.044,3.12,1.643a1.4,1.4,0,0,0,1.5-.233L26.067,33.3l3,2.683a1.269,1.269,0,0,0,1.75,0l3-2.8,4.785,2.7c.06,1.678.2,3.325.414,4.932l-.949-.749a1.382,1.382,0,0,0-1.625.117l-2.875,2.683-2.875-2.683a1.269,1.269,0,0,0-1.75,0l-2.875,2.683-2.875-2.683a1.479,1.479,0,0,0-1-.35,1.586,1.586,0,0,0-1,.467l-1.756,2.458A44.019,44.019,0,0,1,18.572,34.574ZM22.656,15.7l2.786,1.734a1.438,1.438,0,0,0,1.375,0l3-1.867,3.125,1.983a1.438,1.438,0,0,0,1.375,0l3.125-1.983,3.983,1.806a44.913,44.913,0,0,0-1.652,5.62l-1.581-1.475a1.269,1.269,0,0,0-1.75,0L33.567,24.2l-2.875-2.683a1.269,1.269,0,0,0-1.75,0L26.067,24.2l-2.875-2.683a1.269,1.269,0,0,0-1.75,0l-1.47,1.42A38.416,38.416,0,0,1,22.656,15.7Zm4.025-6.265,7.886-2.152,3.25,1.983a1.438,1.438,0,0,0,1.375,0l3.125-1.983L45.8,8.864a36.124,36.124,0,0,0-3.533,6.39l-4.579-2.137a1.573,1.573,0,0,0-1.25.117l-3,1.867-3-1.867a1.438,1.438,0,0,0-1.375,0l-3,1.867-2.279-1.507A30.913,30.913,0,0,1,26.681,9.435Zm7.511,21.3a1.4,1.4,0,0,0-1.5.233L29.817,33.65l-2.875-2.683a1.269,1.269,0,0,0-1.75,0l-3.125,2.917-3.455-1.857a44.1,44.1,0,0,1,.521-5.115,1.326,1.326,0,0,0,.434-.261l2.75-2.683,2.875,2.683a1.269,1.269,0,0,0,1.75,0l2.875-2.683,2.875,2.683a1.269,1.269,0,0,0,1.75,0l2.875-2.683,1.625,1.517a1.321,1.321,0,0,0,.3.212,50.627,50.627,0,0,0-.671,7.492Zm19.563-29.4A24.021,24.021,0,0,0,47.214,7l-4.4-2.052a1.573,1.573,0,0,0-1.25.117l-3,1.867-3-1.867a1.967,1.967,0,0,0-1.125-.233L30.11,5.988A19.053,19.053,0,0,1,42.317,1.333H53.755Zm-30.513,52.1,1.575-1.47,2.875,2.683a1.269,1.269,0,0,0,1.75,0l2.875-2.683,2.875,2.683a1.174,1.174,0,0,0,.875.35,1,1,0,0,0,1-.583l1.875-2.683,3.61,1.685a35.432,35.432,0,0,0,3.242,5.719L43.442,60.6l-3-1.867a1.438,1.438,0,0,0-1.375,0l-3,1.867-3-1.867a1.438,1.438,0,0,0-1.375,0L28.6,60.656A29.955,29.955,0,0,1,23.242,53.436Zm19.075,13.23a18.955,18.955,0,0,1-11.909-4.412l1.909-1.188,3.125,1.867a1.438,1.438,0,0,0,1.375,0l3-1.867,2.875,1.983a1.438,1.438,0,0,0,1.375,0l3.2-1.988A23.954,23.954,0,0,0,53.8,66.667H42.317Z" transform="translate(-16.067 1)" fill="#f79000"/>
        <path id="Path_157" data-name="Path 157" d="M241,67.267c-5.005,0-9.2,7.18-10.85,17.477q-.015.091-.029.182-.066.423-.127.853c-.014.1-.027.2-.04.3q-.041.3-.079.607c-.017.136-.034.272-.05.408q-.04.341-.076.686-.022.208-.042.416-.031.31-.058.623-.022.253-.042.506-.023.285-.043.572c-.009.125-.018.25-.026.375q-.027.415-.048.834c-.005.1-.01.208-.015.313q-.017.369-.031.742c0,.072-.006.144-.008.216q-.015.466-.023.938c0,.08,0,.161,0,.241,0,.326-.008.654-.008.983s0,.657.008.983q0,.121,0,.241.008.471.023.938c0,.072.005.144.008.216q.013.373.031.742c0,.1.01.209.015.313q.022.419.048.834c.008.125.017.25.026.375q.02.287.043.572.02.254.042.507.028.313.058.623.021.209.042.416.036.345.076.686.024.2.05.409.038.305.079.607c.013.1.026.2.04.3q.06.43.127.853.014.091.029.182C231.8,114.62,235.994,121.8,241,121.8c6.477,0,11.6-12.022,11.6-27.266S247.476,67.267,241,67.267Zm-9.538,31.186c0-.077-.011-.153-.015-.229-.007-.114-.013-.228-.019-.342q-.013-.241-.025-.483c0-.091-.009-.182-.013-.274q-.016-.378-.028-.758c0-.046,0-.093,0-.139q-.009-.336-.015-.674c0-.072,0-.145,0-.217,0-.267-.006-.535-.006-.8,0-.234,0-.468,0-.7a54.134,54.134,0,0,1,1.593-12.7c1.42,3.1,2.27,8.009,2.27,13.4s-.85,10.293-2.27,13.4A51.95,51.95,0,0,1,231.461,98.453ZM241,119.321c-2.843,0-5.457-3.383-7.248-8.627,2.048-3.226,3.381-9.372,3.381-16.16S235.8,81.6,233.752,78.373c1.791-5.244,4.4-8.627,7.248-8.627,5.22,0,9.667,11.4,9.667,24.788S246.22,119.321,241,119.321Z" transform="translate(-189.367 -59.533)" fill="#f79000"/>
      </g>
    </g>
  </g>
</svg>
