<svg xmlns="http://www.w3.org/2000/svg" width="36.566" height="20.863" viewBox="0 0 36.566 20.863">
  <g id="vk-social-network-logo" transform="translate(0 -117.748)">
    <path id="Path_104" data-name="Path 104" d="M36.373,136.59a2.506,2.506,0,0,0-.124-.238,18.951,18.951,0,0,0-3.636-4.208l-.038-.038-.019-.019-.019-.019h-.019q-1.218-1.161-1.542-1.561a1.466,1.466,0,0,1-.267-1.542,14.377,14.377,0,0,1,1.714-2.494q.781-1.009,1.237-1.618,3.294-4.379,2.856-5.6l-.113-.19a1.114,1.114,0,0,0-.59-.314,3,3,0,0,0-1.219-.047l-5.483.038a.712.712,0,0,0-.381.01l-.248.057-.1.048-.076.057a.846.846,0,0,0-.21.2,1.306,1.306,0,0,0-.19.333,31.088,31.088,0,0,1-2.037,4.284q-.7,1.181-1.295,2.047a9.848,9.848,0,0,1-.99,1.275,6.906,6.906,0,0,1-.724.657q-.324.248-.495.21c-.114-.026-.222-.051-.324-.076a1.266,1.266,0,0,1-.428-.466,2.089,2.089,0,0,1-.219-.743q-.057-.448-.067-.771t.01-.914q.02-.59.019-.8,0-.724.028-1.571t.048-1.342q.019-.5.019-1.047a4.4,4.4,0,0,0-.067-.866,2.963,2.963,0,0,0-.2-.609,1.026,1.026,0,0,0-.39-.457,2.2,2.2,0,0,0-.638-.257,12.669,12.669,0,0,0-2.57-.247,12.49,12.49,0,0,0-4.55.457,2.565,2.565,0,0,0-.723.571q-.343.419-.1.457a2.334,2.334,0,0,1,1.618.819l.114.229a3.642,3.642,0,0,1,.267.876,8.836,8.836,0,0,1,.171,1.389,14.82,14.82,0,0,1,0,2.38q-.1.99-.181,1.542a3.088,3.088,0,0,1-.257.895,3.773,3.773,0,0,1-.229.419.327.327,0,0,1-.1.1,1.426,1.426,0,0,1-.514.1,1.207,1.207,0,0,1-.647-.267,4.568,4.568,0,0,1-.79-.733,9.8,9.8,0,0,1-.924-1.3q-.514-.838-1.066-1.98l-.3-.552q-.286-.533-.78-1.552t-.876-1.971a1.255,1.255,0,0,0-.457-.609l-.1-.057a1.3,1.3,0,0,0-.3-.162,2.02,2.02,0,0,0-.438-.124l-5.217.038a1.326,1.326,0,0,0-1.085.362l-.076.114a.616.616,0,0,0-.057.3A1.516,1.516,0,0,0,.114,120q1.142,2.685,2.484,5.179t2.332,4.017q.99,1.523,2.018,2.875T8.31,133.8q.333.381.524.571l.476.457a11.293,11.293,0,0,0,1.342,1.095,22.89,22.89,0,0,0,1.961,1.257,10.638,10.638,0,0,0,2.5,1.009,8.657,8.657,0,0,0,2.78.314h2.19a1.516,1.516,0,0,0,1.009-.419l.076-.1a1.262,1.262,0,0,0,.143-.352,1.934,1.934,0,0,0,.067-.524,6.273,6.273,0,0,1,.123-1.475,3.879,3.879,0,0,1,.324-.99,2.434,2.434,0,0,1,.409-.561,1.655,1.655,0,0,1,.324-.276,1.243,1.243,0,0,1,.152-.067,1.208,1.208,0,0,1,1.076.3,6.32,6.32,0,0,1,1.162,1.1q.543.657,1.3,1.475a8.961,8.961,0,0,0,1.333,1.219l.381.228a4.635,4.635,0,0,0,.99.419,2.134,2.134,0,0,0,1.066.1L34.9,138.5a2.209,2.209,0,0,0,1.123-.238.944.944,0,0,0,.476-.524,1.474,1.474,0,0,0,.01-.648A2.39,2.39,0,0,0,36.373,136.59Z" fill="#f79000"/>
  </g>
</svg>
