<svg xmlns="http://www.w3.org/2000/svg" width="213" height="71.197" viewBox="0 0 213 71.197">
  <g id="Group_163" data-name="Group 163" transform="translate(-13.156 -694.972)">
    <g id="Group_162" data-name="Group 162" transform="translate(13.157 694.972)">
      <g id="Group_161" data-name="Group 161" transform="translate(85.327 30.349)">
        <g id="Group_159" data-name="Group 159">
          <path id="Path_192" data-name="Path 192" d="M85.307,745.4V720.974h14.83c5.051,0,7.248,3.367,7.248,6.218a5.388,5.388,0,0,1-4.176,5.606,5.762,5.762,0,0,1,4.652,5.966c0,3.407-2.306,6.631-7.212,6.631Zm14.575-16.881a1.407,1.407,0,0,0-1.469-1.387H92.7v2.849h5.711A1.446,1.446,0,0,0,99.882,728.514Zm.473,9.189a1.58,1.58,0,0,0-1.722-1.574H92.7v3.115h5.931A1.536,1.536,0,0,0,100.355,737.7Z" transform="translate(-85.307 -720.572)" fill="#050a0c"/>
          <path id="Path_193" data-name="Path 193" d="M105.771,733.261c0-7.5,5.822-12.627,13.366-12.627S132.5,725.76,132.5,733.261s-5.822,12.633-13.363,12.633S105.771,740.768,105.771,733.261Zm19.224,0a5.865,5.865,0,1,0-5.858,6.114A5.785,5.785,0,0,0,124.995,733.261Z" transform="translate(-81.57 -720.634)" fill="#050a0c"/>
          <path id="Path_194" data-name="Path 194" d="M147.006,745.4l-9-12.377V745.4h-7.4V720.974h7.616l8.494,11.568V720.974h7.4V745.4Z" transform="translate(-77.035 -720.572)" fill="#050a0c"/>
          <path id="Path_195" data-name="Path 195" d="M153.265,745.4v-5.859l9.3-12.121h-9.3v-6.442h19.072v5.821L163,738.945h9.594v6.45Z" transform="translate(-72.895 -720.572)" fill="#050a0c"/>
          <path id="Path_196" data-name="Path 196" d="M189.1,745.4l-.88-2.856h-8.786l-.878,2.856H170.17l9.006-24.421h9.3l9.007,24.421Zm-5.273-17.172-2.418,7.87h4.837Z" transform="translate(-69.808 -720.572)" fill="#050a0c"/>
        </g>
        <g id="Group_160" data-name="Group 160" transform="translate(0 31.658)">
          <path id="Path_197" data-name="Path 197" d="M92.039,755.784l-.729-1.827h-4.1l-.733,1.827H85.307l3.31-8.243H89.89l3.326,8.243ZM89.259,748.6,87.5,753.04H91Z" transform="translate(-85.307 -747.378)" fill="#050a0c"/>
          <path id="Path_198" data-name="Path 198" d="M92.9,755.784v-8.243h3.673a2.08,2.08,0,0,1,2.312,2.1,1.877,1.877,0,0,1-1.448,1.893,2.058,2.058,0,0,1,1.607,2.027,2.147,2.147,0,0,1-2.384,2.224Zm4.924-5.995a1.3,1.3,0,0,0-1.426-1.332H93.932v2.659H96.4A1.287,1.287,0,0,0,97.825,749.789Zm.16,3.661a1.4,1.4,0,0,0-1.539-1.42H93.932v2.84h2.514A1.364,1.364,0,0,0,97.985,753.451Z" transform="translate(-83.92 -747.378)" fill="#050a0c"/>
          <path id="Path_199" data-name="Path 199" d="M101.43,755.784v-7.326H98.816v-.917h6.256v.917h-2.62v7.326Z" transform="translate(-82.84 -747.378)" fill="#050a0c"/>
          <path id="Path_200" data-name="Path 200" d="M104.692,751.69a4.094,4.094,0,1,1,4.1,4.267A4.023,4.023,0,0,1,104.692,751.69Zm7.122,0a3.044,3.044,0,1,0-3.026,3.349A3.051,3.051,0,0,0,111.814,751.69Z" transform="translate(-81.767 -747.399)" fill="#050a0c"/>
          <path id="Path_201" data-name="Path 201" d="M112.69,751.69a4.122,4.122,0,0,1,4.236-4.266,3.685,3.685,0,0,1,3.127,1.634l-.863.481a2.782,2.782,0,0,0-2.264-1.2,3.353,3.353,0,0,0,0,6.7,2.754,2.754,0,0,0,2.264-1.2l.875.483a3.725,3.725,0,0,1-3.139,1.634A4.123,4.123,0,0,1,112.69,751.69Z" transform="translate(-80.306 -747.399)" fill="#050a0c"/>
          <path id="Path_202" data-name="Path 202" d="M126.018,755.784l-.73-1.827h-4.106l-.73,1.827h-1.17l3.316-8.243h1.267l3.329,8.243Zm-2.783-7.182-1.754,4.438h3.5Z" transform="translate(-79.102 -747.378)" fill="#050a0c"/>
          <path id="Path_203" data-name="Path 203" d="M126.4,755.018c.986,0,1.543-.543,1.887-3.334l.506-4.143h5.047v8.243h-1.025v-7.326h-3.1l-.407,3.3c-.449,3.618-1.438,4.179-2.907,4.179Z" transform="translate(-77.802 -747.378)" fill="#050a0c"/>
          <path id="Path_204" data-name="Path 204" d="M134.039,751.69a4.095,4.095,0,1,1,4.094,4.267A4.024,4.024,0,0,1,134.039,751.69Zm7.122,0a3.046,3.046,0,1,0-3.028,3.349A3.051,3.051,0,0,0,141.161,751.69Z" transform="translate(-76.407 -747.399)" fill="#050a0c"/>
          <path id="Path_205" data-name="Path 205" d="M148.164,755.784V752h-4.819v3.781h-1.028v-8.243h1.028v3.546h4.819v-3.546h1.024v8.243Z" transform="translate(-74.895 -747.378)" fill="#050a0c"/>
          <path id="Path_206" data-name="Path 206" d="M158.293,755.809l-4.812-6.573v6.573h-1.025v-8.243H153.5l4.752,6.439v-6.439h1.022v8.243Zm2.442-6.367a2.01,2.01,0,1,1,2,2.043A1.952,1.952,0,0,1,160.736,749.442Zm3.292,0a1.287,1.287,0,0,0-1.29-1.42,1.271,1.271,0,0,0-1.257,1.42,1.284,1.284,0,0,0,1.257,1.446A1.3,1.3,0,0,0,164.028,749.442Z" transform="translate(-73.043 -747.403)" fill="#050a0c"/>
          <path id="Path_207" data-name="Path 207" d="M165.432,755.784V748.9l-1.32,1.393-.622-.627,2.068-2.129h.9v8.243Z" transform="translate(-71.028 -747.378)" fill="#050a0c"/>
        </g>
      </g>
      <path id="Path_208" data-name="Path 208" d="M31.866,740.411l-4.415,25.758,9.939-5.228v-42.3l-24.233,3.523Zm18.72-32.467H50.6l8.626,4.532-8.64-17.5L41.933,712.5l8.651-4.551Zm-9.549,42.241v8.838l9.546-5.017,9.549,5.017V750.17l-9.54-5Zm0-34.81v9.2l9.546-5.017,0-.006h.006l.006.006,9.534,5v-9.2l-9.54-5.006Zm46.978,6.792L63.78,718.645v42.3l9.939,5.228L69.3,740.411Zm-46.978,4.815v9.193l9.546-5.024H50.6l9.534,5.012v-9.2l-9.54-5.011Zm0,11.6v9.2l9.546-5.017,0-.006.006.006v-.006l.006.006,9.534,5v-9.2l-9.54-5Z" transform="translate(-13.157 -694.972)" fill="#f99500"/>
    </g>
  </g>
</svg>
